<?xml version="1.0" ?><!DOCTYPE svg  PUBLIC '-//W3C//DTD SVG 1.1//EN'  'http://www.w3.org/Graphics/SVG/1.1/DTD/svg11.dtd'><svg enable-background="new 0 0 91 91" height="91px" id="Layer_1" version="1.1" viewBox="0 0 91 91" width="91px" xml:space="preserve" xmlns="http://www.w3.org/2000/svg" xmlns:xlink="http://www.w3.org/1999/xlink"><g><path d="M71.564,76.89c0,2.96-2.4,5.361-5.36,5.361H8.854c-2.96,0-5.357-2.401-5.357-5.361V47.947   c0-2.96,2.397-5.361,5.357-5.361h57.35c2.96,0,5.36,2.401,5.36,5.361V76.89z" fill="#9AE0FF"/><g><circle cx="37.529" cy="69.359" fill="#F6DABB" r="19.077"/><path d="M43.463,76.656c0,2.943-2.385,5.33-5.329,5.33c-2.942,0-5.33-2.387-5.33-5.33    c0-2.941,2.388-5.328,5.33-5.328C41.078,71.329,43.463,73.715,43.463,76.656z" fill="#FF889C"/><path d="M87.531,24.273c0,11.991-10.972,21.713-24.504,21.713c-3.172,0-8.597-0.938-11.373-1.908l-9.965,3.381    l1.881-9.987c-3.168-3.655-5.048-8.231-5.048-13.198c0-11.99,10.974-21.71,24.505-21.71C76.561,2.563,87.531,12.283,87.531,24.273    z" fill="#F4F2E8"/><g><g><path d="M30.676,76.657c0,4.112,3.346,7.458,7.458,7.458c4.111,0,7.456-3.346,7.456-7.458      c0-4.111-3.345-7.455-7.456-7.455C34.021,69.202,30.676,72.546,30.676,76.657z M38.134,73.457c1.765,0,3.202,1.436,3.202,3.2      c0,1.766-1.438,3.204-3.202,3.204c-1.766,0-3.204-1.438-3.204-3.204C34.93,74.893,36.367,73.457,38.134,73.457z" fill="#3B6A75"/><path d="M33.959,63.499c-0.833-0.833-2.179-0.832-3.008,0.001c-1.152,1.154-3.153,1.152-4.307-0.001      c-0.83-0.831-2.179-0.831-3.01,0c-0.83,0.832-0.83,2.179,0,3.009c1.382,1.381,3.215,2.141,5.164,2.141      c1.951,0,3.783-0.762,5.162-2.141C34.792,65.676,34.79,64.329,33.959,63.499z" fill="#3B6A75"/><path d="M46.053,68.648c1.95,0,3.783-0.762,5.165-2.141c0.83-0.832,0.828-2.179-0.002-3.009      c-0.834-0.833-2.182-0.832-3.011,0.001c-1.152,1.154-3.153,1.152-4.305-0.001c-0.83-0.831-2.18-0.831-3.012,0      c-0.83,0.83-0.83,2.179,0,3.009C42.269,67.889,44.104,68.648,46.053,68.648z" fill="#3B6A75"/><path d="M71.539,50.105c-1.176,0-2.129,0.951-2.129,2.125v23.557c0,2.247-1.824,4.074-4.072,4.074      c-1.174,0-2.126,0.95-2.126,2.126c0,1.175,0.952,2.128,2.126,2.128c4.592,0,8.327-3.737,8.327-8.328V52.23      C73.665,51.057,72.715,50.105,71.539,50.105z" fill="#3B6A75"/><path d="M63.027,0.437c-14.685,0-26.633,10.693-26.633,23.837c0,5.008,1.689,9.754,4.9,13.787l-0.502,2.665      H9.667c-4.592,0-8.327,3.735-8.327,8.325v26.735c0,4.592,3.735,8.329,8.327,8.329c1.174,0,2.129-0.953,2.128-2.129      c0-1.175-0.954-2.127-2.128-2.127c-2.245,0-4.072-1.826-4.072-4.073V49.051c0-2.244,1.827-4.07,4.072-4.07h30.325l-0.615,3.268      c-0.61-0.053-1.224-0.094-1.848-0.094c-11.693,0-21.204,9.513-21.204,21.206c0,11.69,9.511,21.203,21.204,21.203      c11.692,0,21.203-9.513,21.203-21.203c0-9.579-6.386-17.685-15.12-20.307l8.056-2.732c3.186,0.979,8.264,1.793,11.359,1.793      c14.686,0,26.633-10.695,26.633-23.841C89.66,11.13,77.713,0.437,63.027,0.437z M54.476,69.359      c0,9.345-7.602,16.948-16.946,16.948c-9.346,0-16.949-7.604-16.949-16.948c0-9.348,7.604-16.951,16.949-16.951      C46.874,52.408,54.477,60.012,54.476,69.359z M63.027,43.858c-2.853,0-8.041-0.87-10.672-1.789l-0.692-0.241l-7.207,2.445      l1.396-7.419l-0.676-0.776c-2.962-3.417-4.526-7.498-4.526-11.805c0-10.799,10.037-19.582,22.377-19.582      c12.339,0,22.377,8.783,22.377,19.583C85.404,35.073,75.366,43.858,63.027,43.858z" fill="#3B6A75"/></g><rect fill="#3B6A75" height="14.366" transform="matrix(-0.9573 -0.289 0.289 -0.9573 106.8229 58.8937)" width="4.255" x="55.631" y="14.378"/><path d="M52.911,31.374c-0.4,0.399-0.632,0.947-0.632,1.503c0,0.566,0.232,1.116,0.632,1.514     c0.39,0.392,0.937,0.623,1.504,0.623c0.556,0,1.103-0.231,1.503-0.623c0.389-0.398,0.623-0.947,0.623-1.514     c0-0.556-0.234-1.104-0.623-1.503C55.119,30.585,53.7,30.585,52.911,31.374z" fill="#3B6A75"/><rect fill="#3B6A75" height="14.366" transform="matrix(-0.9573 -0.2892 0.2892 -0.9573 129.2318 62.2155)" width="4.255" x="67.084" y="14.378"/><path d="M64.364,31.374c-0.399,0.399-0.632,0.947-0.632,1.503c0,0.566,0.233,1.116,0.632,1.514     c0.39,0.392,0.938,0.623,1.503,0.623c0.557,0,1.104-0.231,1.506-0.623c0.39-0.398,0.622-0.947,0.622-1.514     c0-0.556-0.232-1.104-0.622-1.503C66.573,30.585,65.152,30.585,64.364,31.374z" fill="#3B6A75"/></g></g></g></svg>