<?xml version="1.0" ?><svg enable-background="new 0 0 24 24" id="Layer_1" version="1.1" viewBox="0 0 24 24" xml:space="preserve" xmlns="http://www.w3.org/2000/svg" xmlns:xlink="http://www.w3.org/1999/xlink"><g><path d="M23.5,8.5000963c0.2763672,0,0.5-0.2236328,0.5-0.5v-4c0-0.2763672-0.2236328-0.5-0.5-0.5H23   c0-0.2763672-0.2236328-0.5-0.5-0.5H14v-2.5c0-0.1489258-0.0664063-0.2905273-0.1816406-0.3852539   c-0.1142578-0.0947266-0.2675781-0.1342773-0.4130859-0.105957l-13,2.5C0.1699219,2.5542955,0,2.7603502,0,3.0000963v18   c0,0.2397461,0.1699219,0.4458008,0.4052734,0.4912109l13,2.5c0.03125,0.0058594,0.0634766,0.0087891,0.0947266,0.0087891   c0.1152344,0,0.2285156-0.0400391,0.3183594-0.1147461C13.9335938,23.7906227,14,23.6490211,14,23.5000954v-2.5h8.5   c0.2763672,0,0.5-0.2236328,0.5-0.5h0.5c0.2763672,0,0.5-0.2236328,0.5-0.5v-4c0-0.2763662-0.2236328-0.499999-0.5-0.499999H23v-1   h0.5c0.2763672,0,0.5-0.2236328,0.5-0.5v-4c0-0.2763672-0.2236328-0.5-0.5-0.5H23v-1H23.5z" fill="#303C42"/><polygon fill="#8E24AA" points="13,22.8946266 1,20.5870094 1,3.4131823 13,1.1055651  "/><path d="M14,20.0000954v-1.5h6.5c0.2763672,0,0.5-0.2236328,0.5-0.5s-0.2236328-0.5-0.5-0.5H14v-1.999999h6.5   c0.2763672,0,0.5-0.2236328,0.5-0.5s-0.2236328-0.5-0.5-0.5H14v-2h6.5c0.2763672,0,0.5-0.2236328,0.5-0.5s-0.2236328-0.5-0.5-0.5   H14v-2h6.5c0.2763672,0,0.5-0.2236328,0.5-0.5s-0.2236328-0.5-0.5-0.5H14v-2h6.5c0.2763672,0,0.5-0.2236328,0.5-0.5   s-0.2236328-0.5-0.5-0.5H14v-1.5h8c0,0.2763672,0.2236328,0.5,0.5,0.5H23v3h-0.5c-0.2763672,0-0.5,0.2236328-0.5,0.5v2v4v1.999999   v4H14z" fill="#FFFFFF"/><path d="M9.5,7.0000963c-0.2763672,0-0.5,0.2236328-0.5,0.5v7.4248047L3.9082031,7.7115221   c-0.125-0.1787109-0.3535156-0.2519531-0.5595703-0.1879883C3.140625,7.5894518,3,7.7823229,3,8.0000963v7.999999   c0,0.2763672,0.2236328,0.5,0.5,0.5s0.5-0.2236328,0.5-0.5V9.5752916l5.0917969,7.213378   C9.1865234,16.9239235,9.3408203,17.0000954,9.5,17.0000954c0.0507813,0,0.1015625-0.0078125,0.1513672-0.0234375   C9.859375,16.9107399,10,16.7178688,10,16.5000954v-8.999999C10,7.2237291,9.7763672,7.0000963,9.5,7.0000963z" fill="#FFFFFF"/><linearGradient gradientUnits="userSpaceOnUse" id="SVGID_1_" x1="10" x2="22" y1="8.0000963" y2="20.0000954"><stop offset="0" style="stop-color:#000000;stop-opacity:0.1"/><stop offset="1" style="stop-color:#000000;stop-opacity:0"/></linearGradient><path d="M14,4.0000963v1.5h1.5L14,4.0000963z M16.5,6.5000963H14v2h4.5L16.5,6.5000963z M19.5,9.5000963H14   v2h6.5c0.2763672,0,0.5,0.2236328,0.5,0.5s-0.2236328,0.5-0.5,0.5H14v2h6.5c0.2763672,0,0.5,0.2236328,0.5,0.5   s-0.2236328,0.5-0.5,0.5H14v1.999999h6.5c0.2763672,0,0.5,0.2236328,0.5,0.5s-0.2236328,0.5-0.5,0.5H14v1.5h8v-7.999999   L19.5,9.5000963z" fill="url(#SVGID_1_)"/><linearGradient gradientUnits="userSpaceOnUse" id="SVGID_2_" x1="-1.5315592" x2="24.7784557" y1="6.1734371" y2="18.4419994"><stop offset="0" style="stop-color:#FFFFFF;stop-opacity:0.2"/><stop offset="1" style="stop-color:#FFFFFF;stop-opacity:0"/></linearGradient><path d="M23.5,8.5000963c0.2763672,0,0.5-0.2236328,0.5-0.5v-4c0-0.2763672-0.2236328-0.5-0.5-0.5H23   c0-0.2763672-0.2236328-0.5-0.5-0.5H14v-2.5c0-0.1489258-0.0664063-0.2905273-0.1816406-0.3852539   c-0.1142578-0.0947266-0.2675781-0.1342773-0.4130859-0.105957l-13,2.5C0.1699219,2.5542955,0,2.7603502,0,3.0000963v18   c0,0.2397461,0.1699219,0.4458008,0.4052734,0.4912109l13,2.5c0.03125,0.0058594,0.0634766,0.0087891,0.0947266,0.0087891   c0.1152344,0,0.2285156-0.0400391,0.3183594-0.1147461C13.9335938,23.7906227,14,23.6490211,14,23.5000954v-2.5h8.5   c0.2763672,0,0.5-0.2236328,0.5-0.5h0.5c0.2763672,0,0.5-0.2236328,0.5-0.5v-4c0-0.2763662-0.2236328-0.499999-0.5-0.499999H23v-1   h0.5c0.2763672,0,0.5-0.2236328,0.5-0.5v-4c0-0.2763672-0.2236328-0.5-0.5-0.5H23v-1H23.5z" fill="url(#SVGID_2_)"/></g><g/><g/><g/><g/><g/><g/><g/><g/><g/><g/><g/><g/><g/><g/><g/></svg>